{
  "accessors": [
    {
      "bufferView": 2,
      "componentType": 5126,
      "count": 525,
      "max": [
        0.06233857944607735,
        0.06600203365087509,
        0.0571211539208889
      ],
      "min": [
        -0.06233857944607735,
        -0.0716216117143631,
        -0.09210646152496338
      ],
      "type": "VEC3"
    },
    {
      "bufferView": 2,
      "byteOffset": 6300,
      "componentType": 5126,
      "count": 525,
      "max": [
        0.9999884366989136,
        0.9999868273735046,
        1.0
      ],
      "min": [
        -0.9999884366989136,
        -0.9999883770942688,
        -1.0
      ],
      "type": "VEC3"
    },
    {
      "bufferView": 1,
      "componentType": 5126,
      "count": 525,
      "max": [
        0.967903733253479,
        0.9931773543357849
      ],
      "min": [
        0.004003290086984634,
        0.02881106734275818
      ],
      "type": "VEC2"
    },
    {
      "bufferView": 0,
      "componentType": 5125,
      "count": 2652,
      "type": "SCALAR"
    },
    {
      "bufferView": 2,
      "byteOffset": 12600,
      "componentType": 5126,
      "count": 525,
      "max": [
        0.0486367829144001,
        0.05149507522583008,
        0.04456622153520584
      ],
      "min": [
        -0.048636794090270996,
        -0.0558793842792511,
        -0.07186169922351837
      ],
      "type": "VEC3"
    },
    {
      "bufferView": 2,
      "byteOffset": 18900,
      "componentType": 5126,
      "count": 525,
      "max": [
        0.9999884366989136,
        0.9999868273735046,
        1.0
      ],
      "min": [
        -0.9999884366989136,
        -0.9999884366989136,
        -1.0
      ],
      "type": "VEC3"
    },
    {
      "bufferView": 1,
      "byteOffset": 4200,
      "componentType": 5126,
      "count": 525,
      "max": [
        0.9581927061080933,
        0.9931773543357849
      ],
      "min": [
        0.008356276899576187,
        0.02726086974143982
      ],
      "type": "VEC2"
    },
    {
      "bufferView": 0,
      "byteOffset": 10608,
      "componentType": 5125,
      "count": 2652,
      "type": "SCALAR"
    },
    {
      "bufferView": 2,
      "byteOffset": 25200,
      "componentType": 5126,
      "count": 525,
      "max": [
        0.03408006578683853,
        0.03608289733529091,
        0.031227774918079376
      ],
      "min": [
        -0.03408006578683853,
        -0.03915498033165932,
        -0.050353921949863434
      ],
      "type": "VEC3"
    },
    {
      "bufferView": 2,
      "byteOffset": 31500,
      "componentType": 5126,
      "count": 525,
      "max": [
        0.9999884366989136,
        0.9999868273735046,
        1.0
      ],
      "min": [
        -0.9999884366989136,
        -0.9999884366989136,
        -1.0
      ],
      "type": "VEC3"
    },
    {
      "bufferView": 1,
      "byteOffset": 8400,
      "componentType": 5126,
      "count": 525,
      "max": [
        0.9866575002670288,
        0.7840847969055176
      ],
      "min": [
        0.0021851100027561188,
        0.0241604745388031
      ],
      "type": "VEC2"
    },
    {
      "bufferView": 0,
      "byteOffset": 21216,
      "componentType": 5125,
      "count": 2652,
      "type": "SCALAR"
    },
    {
      "bufferView": 2,
      "byteOffset": 37800,
      "componentType": 5126,
      "count": 130,
      "max": [
        0.15743471682071686,
        0.3218163549900055,
        0.030995748937129974
      ],
      "min": [
        -0.15743471682071686,
        -0.3218163549900055,
        0.00025040656328201294
      ],
      "type": "VEC3"
    },
    {
      "bufferView": 2,
      "byteOffset": 39360,
      "componentType": 5126,
      "count": 130,
      "max": [
        1.0,
        1.0,
        1.0
      ],
      "min": [
        -1.0,
        -1.0,
        -1.0
      ],
      "type": "VEC3"
    },
    {
      "bufferView": 3,
      "componentType": 5126,
      "count": 130,
      "max": [
        0.707124650478363,
        1.0,
        1.0,
        1.0
      ],
      "min": [
        -0.7071236371994019,
        -0.7071254849433899,
        -1.0,
        1.0
      ],
      "type": "VEC4"
    },
    {
      "bufferView": 1,
      "byteOffset": 12600,
      "componentType": 5126,
      "count": 130,
      "max": [
        0.9950792789459229,
        0.9889351725578308
      ],
      "min": [
        0.005954018794000149,
        0.019545862451195717
      ],
      "type": "VEC2"
    },
    {
      "bufferView": 0,
      "byteOffset": 31824,
      "componentType": 5125,
      "count": 324,
      "type": "SCALAR"
    }
  ],
  "asset": {
    "extras": {
      "author": "cesar.seidel (https://sketchfab.com/cesar.seidel)",
      "license": "CC-BY-4.0 (http://creativecommons.org/licenses/by/4.0/)",
      "source": "https://sketchfab.com/3d-models/beakers-b63ae471653f41e4b327cdcc796fc20c",
      "title": "Beakers"
    },
    "generator": "Sketchfab-12.68.0",
    "version": "2.0"
  },
  "bufferViews": [
    {
      "buffer": 0,
      "byteLength": 33120,
      "name": "floatBufferViews",
      "target": 34963
    },
    {
      "buffer": 0,
      "byteLength": 13640,
      "byteOffset": 33120,
      "byteStride": 8,
      "name": "floatBufferViews",
      "target": 34962
    },
    {
      "buffer": 0,
      "byteLength": 40920,
      "byteOffset": 46760,
      "byteStride": 12,
      "name": "floatBufferViews",
      "target": 34962
    },
    {
      "buffer": 0,
      "byteLength": 2080,
      "byteOffset": 87680,
      "byteStride": 16,
      "name": "floatBufferViews",
      "target": 34962
    }
  ],
  "buffers": [
    {
      "byteLength": 89760,
      "uri": "scene.bin"
    }
  ],
  "extensionsRequired": [
    "KHR_materials_pbrSpecularGlossiness"
  ],
  "extensionsUsed": [
    "KHR_materials_pbrSpecularGlossiness"
  ],
  "images": [
    {
      "uri": "textures/Glass_MAT_diffuse.png"
    },
    {
      "uri": "textures/Glass_MAT_specularGlossiness.png"
    },
    {
      "uri": "textures/Glass_MAT_occlusion.png"
    },
    {
      "uri": "textures/Granite_MAT_diffuse.png"
    },
    {
      "uri": "textures/Granite_MAT_specularGlossiness.png"
    },
    {
      "uri": "textures/Granite_MAT_normal.png"
    },
    {
      "uri": "textures/Granite_MAT_occlusion.png"
    }
  ],
  "materials": [
    {
      "alphaMode": "BLEND",
      "doubleSided": true,
      "extensions": {
        "KHR_materials_pbrSpecularGlossiness": {
          "diffuseFactor": [
            0.8556051858,
            0.8556051858,
            0.8556051858,
            1.0
          ],
          "diffuseTexture": {
            "index": 0
          },
          "glossinessFactor": 1.0,
          "specularFactor": [
            0.8346937720786288,
            0.8346937720786288,
            0.8346937720786288
          ],
          "specularGlossinessTexture": {
            "index": 1
          }
        }
      },
      "name": "Glass_MAT",
      "occlusionTexture": {
        "index": 2
      }
    },
    {
      "doubleSided": true,
      "extensions": {
        "KHR_materials_pbrSpecularGlossiness": {
          "diffuseFactor": [
            1.0,
            1.0,
            1.0,
            1.0
          ],
          "diffuseTexture": {
            "index": 3
          },
          "glossinessFactor": 1.0,
          "specularFactor": [
            0.0,
            0.0,
            0.0
          ],
          "specularGlossinessTexture": {
            "index": 4
          }
        }
      },
      "name": "Granite_MAT",
      "normalTexture": {
        "index": 5
      },
      "occlusionTexture": {
        "index": 6
      }
    }
  ],
  "meshes": [
    {
      "name": "Bequer_500mL_Glass_MAT_0",
      "primitives": [
        {
          "attributes": {
            "NORMAL": 1,
            "POSITION": 0,
            "TEXCOORD_0": 2
          },
          "indices": 3,
          "material": 0,
          "mode": 4
        }
      ]
    },
    {
      "name": "Bequer_250mL_Glass_MAT_0",
      "primitives": [
        {
          "attributes": {
            "NORMAL": 5,
            "POSITION": 4,
            "TEXCOORD_0": 6
          },
          "indices": 7,
          "material": 0,
          "mode": 4
        }
      ]
    },
    {
      "name": "Bequer_100mL_Glass_MAT_0",
      "primitives": [
        {
          "attributes": {
            "NORMAL": 9,
            "POSITION": 8,
            "TEXCOORD_0": 10
          },
          "indices": 11,
          "material": 0,
          "mode": 4
        }
      ]
    },
    {
      "name": "Cube_Granite_MAT_0",
      "primitives": [
        {
          "attributes": {
            "NORMAL": 13,
            "POSITION": 12,
            "TANGENT": 14,
            "TEXCOORD_0": 15
          },
          "indices": 16,
          "material": 1,
          "mode": 4
        }
      ]
    }
  ],
  "nodes": [
    {
      "children": [
        1
      ],
      "matrix": [
        1.0,
        0.0,
        0.0,
        0.0,
        0.0,
        2.220446049250313e-16,
        -1.0,
        0.0,
        0.0,
        1.0,
        2.220446049250313e-16,
        0.0,
        0.0,
        0.0,
        0.0,
        1.0
      ],
      "name": "Sketchfab_model"
    },
    {
      "children": [
        2
      ],
      "matrix": [
        0.009999999776482582,
        0.0,
        0.0,
        0.0,
        0.0,
        0.0,
        0.009999999776482582,
        0.0,
        0.0,
        -0.009999999776482582,
        0.0,
        0.0,
        0.0,
        0.0,
        0.0,
        1.0
      ],
      "name": "3d009a63248e4567865f35bf2bf48217.fbx"
    },
    {
      "children": [
        3,
        10
      ],
      "name": "RootNode"
    },
    {
      "children": [
        4,
        6,
        8
      ],
      "matrix": [
        100.0,
        0.0,
        0.0,
        0.0,
        0.0,
        -1.629206793918314e-05,
        -99.99999999999868,
        0.0,
        0.0,
        99.99999999999868,
        -1.629206793918314e-05,
        0.0,
        0.0,
        3.0995748043060303,
        0.0,
        1.0
      ],
      "name": "Bequers"
    },
    {
      "children": [
        5
      ],
      "matrix": [
        1.0,
        0.0,
        0.0,
        0.0,
        0.0,
        1.0,
        -2.646977960169688e-23,
        0.0,
        0.0,
        2.646977960169688e-23,
        1.0,
        0.0,
        1.984136632771083e-09,
        0.19999103248119354,
        0.09210648387670517,
        1.0
      ],
      "name": "Bequer_500mL"
    },
    {
      "mesh": 0,
      "name": "Bequer_500mL_Glass_MAT_0"
    },
    {
      "children": [
        7
      ],
      "matrix": [
        1.0,
        0.0,
        0.0,
        0.0,
        0.0,
        1.0,
        -2.646977960169688e-23,
        0.0,
        0.0,
        2.646977960169688e-23,
        1.0,
        0.0,
        3.847453022842728e-09,
        -0.0012030646903440356,
        0.07186170667409897,
        1.0
      ],
      "name": "Bequer_250mL"
    },
    {
      "mesh": 1,
      "name": "Bequer_250mL_Glass_MAT_0"
    },
    {
      "children": [
        9
      ],
      "matrix": [
        1.0,
        0.0,
        0.0,
        0.0,
        0.0,
        1.0,
        -2.646977960169688e-23,
        0.0,
        0.0,
        2.646977960169688e-23,
        1.0,
        0.0,
        -2.792289732767017e-10,
        -0.1917826235294342,
        0.05035390704870224,
        1.0
      ],
      "name": "Bequer_100mL"
    },
    {
      "mesh": 2,
      "name": "Bequer_100mL_Glass_MAT_0"
    },
    {
      "children": [
        11
      ],
      "matrix": [
        100.0,
        0.0,
        0.0,
        0.0,
        0.0,
        -1.629206793918314e-05,
        -99.99999999999868,
        0.0,
        0.0,
        99.99999999999868,
        -1.629206793918314e-05,
        0.0,
        0.0,
        0.0,
        0.0,
        1.0
      ],
      "name": "Cube"
    },
    {
      "mesh": 3,
      "name": "Cube_Granite_MAT_0"
    }
  ],
  "samplers": [
    {
      "magFilter": 9729,
      "minFilter": 9987,
      "wrapS": 10497,
      "wrapT": 10497
    }
  ],
  "scene": 0,
  "scenes": [
    {
      "name": "Sketchfab_Scene",
      "nodes": [
        0
      ]
    }
  ],
  "textures": [
    {
      "sampler": 0,
      "source": 0
    },
    {
      "sampler": 0,
      "source": 1
    },
    {
      "sampler": 0,
      "source": 2
    },
    {
      "sampler": 0,
      "source": 3
    },
    {
      "sampler": 0,
      "source": 4
    },
    {
      "sampler": 0,
      "source": 5
    },
    {
      "sampler": 0,
      "source": 6
    }
  ]
}
